{"title":"The.Theatre.Bizzare.2011.DVDRip.XviD-miRaGe","uid":7210021,"size":736072928,"categoryP":"video","categoryS":"movies","magnet":"?xt=urn:btih:3c708d7fb3848b426afea5b8c14c223c49641e58&amp;dn=The.Theatre.Bizzare.2011.DVDRip.XviD-miRaGe&amp;tr=udp%3A%2F%2Ftracker.openbittorrent.com%3A80&amp;tr=udp%3A%2F%2Fopen.demonii.com%3A1337&amp;tr=udp%3A%2F%2Ftracker.coppersurfer.tk%3A6969&amp;tr=udp%3A%2F%2Fexodus.desync.com%3A6969","seeders":1,"leechers":1,"uploader":"HeroMaster","files":-1,"time":1335209183,"description":"The.Theatre.Bizzare.2011.DVDRip.XviD-miRaGe\n\n\nonline info\n___________\n\nimdb: http://www.imdb.com/title/tt1763316/\nruntime: 114 min\ngenre: horror\nrelease date: 9 May 2012 (France)\nplot: Down a seedy city street in her neighborhood, young Enola Penny is obsessed with what appears to be a long abandoned theatre. One night, she sees that the front door is slightly ajar and impulsively decides to sneak inside. But there in the dark, decrepit auditorium, a show unlike any other unfolds before her eyes. \n\n\nInfo\n____\n\nFormat : AVI\n\nFormat/Info : Audio Video Interleave\n\nFile size : 702 MiB\n\nDuration : 1h 53mn\n\nOverall bit rate mode : Variable\n\nOverall bit rate : 863 Kbps\n\n\nVideo\n_____\n\nID : 0\n\nFormat : MPEG-4 Visual\n\nCodec ID : XVID\n\nCodec ID/Hint : XviD\n\nDuration : 1h 53mn\n\nBit rate : 734 Kbps\n\nWidth : 720 pixels\n\nHeight : 320 pixels\n\nDisplay aspect ratio : 2.25:1\n\nFrame rate : 23.976 fps\n\nColor space : YUV\n\nChroma subsampling : 4:2:0\n\nBit depth : 8 bits\n\nScan type : Progressive\n\nCompression mode : Lossy\n\nBits/(Pixel*Frame) : 0.133\n\nStream size : 598 MiB (85%)\n\nWriting library : XviD 64\n\n\nAudio\n_____\n\nID : 1\n\nFormat : MPEG Audio\n\nFormat version : Version 1\n\nFormat profile : Layer 3\n\nMode : Joint stereo\n\nMode extension : MS Stereo\n\nCodec ID : 55\n\nCodec ID/Hint : MP3\n\nDuration : 1h 53mn\n\nBit rate mode : Variable\n\nBit rate : 115 Kbps\n\nNominal bit rate : 128 Kbps\n\nChannel(s) : 2 channels\n\nSampling rate : 48.0 KHz\n\nCompression mode : Lossy\n\nStream size : 93.9 MiB (13%)\n\nAlignment : Aligned on interleaves\n\nInterleave, duration : 24 ms (0.58 video frame)\n\nInterleave, preload duration : 159 ms\n\n\nPoster:\n\n &lt;a href=&quot;\nhttp://i.imgur.com/OOyTE.jpg&quot; rel=&quot;nofollow&quot; target=&quot;_NEW&quot;&gt;\nhttp://i.imgur.com/OOyTE.jpg&lt;/a&gt;\n\n\nScreenshots:\n\n &lt;a href=&quot;\nhttp://i.imgur.com/S1IhJ.jpg&quot; rel=&quot;nofollow&quot; target=&quot;_NEW&quot;&gt;\nhttp://i.imgur.com/S1IhJ.jpg&lt;/a&gt;\n\n\nENJOY!","torrent":{"xt":"urn:btih:3c708d7fb3848b426afea5b8c14c223c49641e58","amp;dn":"The.Theatre.Bizzare.2011.DVDRip.XviD-miRaGe","amp;tr":["udp%3A%2F%2Ftracker.openbittorrent.com%3A80","udp%3A%2F%2Fopen.demonii.com%3A1337","udp%3A%2F%2Ftracker.coppersurfer.tk%3A6969","udp%3A%2F%2Fexodus.desync.com%3A6969"],"infoHash":"3c708d7fb3848b426afea5b8c14c223c49641e58","infoHashBuffer":{"type":"Buffer","data":[60,112,141,127,179,132,139,66,106,254,165,184,193,76,34,60,73,100,30,88]},"announce":[],"urlList":[]}}